<?xml version="1.0" encoding="utf-8"?>
<!-- Generator: Adobe Illustrator 16.0.0, SVG Export Plug-In . SVG Version: 6.00 Build 0)  -->
<!DOCTYPE svg PUBLIC "-//W3C//DTD SVG 1.1//EN" "http://www.w3.org/Graphics/SVG/1.1/DTD/svg11.dtd">
<svg version="1.1" id="Calque_1" xmlns="http://www.w3.org/2000/svg" xmlns:xlink="http://www.w3.org/1999/xlink" x="0px" y="0px"
	 viewBox="0 0 283.46 283.46" enable-background="new 0 0 283.46 283.46" xml:space="preserve">
<g>
	<polygon fill="currentColor" stroke="#FFFFFF" stroke-linecap="round" stroke-linejoin="round" stroke-miterlimit="10" points="
		32.43,53.719 202.663,19.135 213.714,21.01 43.144,55.396 	"/>
	<polygon fill="currentColor" stroke="#FFFFFF" stroke-linecap="round" stroke-linejoin="round" stroke-miterlimit="10" points="
		79.348,161.758 254.687,115.312 252.514,91.4 67.241,126.904 	"/>
	<polygon fill="currentColor" stroke="#FFFFFF" stroke-linecap="round" stroke-linejoin="round" stroke-miterlimit="10" points="
		66.78,135.906 253.015,93.383 227.593,74.252 48.659,116.111 	"/>
	<polygon fill="currentColor" stroke="#FFFFFF" stroke-linecap="round" stroke-linejoin="round" stroke-miterlimit="10" points="
		214.466,53.041 233.394,78.207 56.71,120.18 35.733,90.082 	"/>
	<path fill="currentColor" stroke="#FFFFFF" stroke-linecap="round" stroke-linejoin="round" stroke-miterlimit="10" d="M43.265,95.479
		c1.615,0.172,173.78-39.15,173.78-39.15l-3.331-35.318L35.62,57.129L43.265,95.479z"/>
	
		<polygon fill="currentColor" stroke="#FFFFFF" stroke-width="2" stroke-linecap="round" stroke-linejoin="round" stroke-miterlimit="10" points="
		28.147,119.311 29.157,130.426 78.826,162.834 76.3,135.02 60.659,117.857 49.15,93.344 43.144,55.396 32.43,53.719 12.929,85.652 
		15.419,113.053 	"/>
	
		<ellipse transform="matrix(0.9959 -0.0905 0.0905 0.9959 -8.6565 3.6064)" fill="currentColor" stroke="#FFFFFF" stroke-linecap="round" stroke-linejoin="round" stroke-miterlimit="10" cx="35.421" cy="97.214" rx="6.374" ry="12.845"/>
</g>
<g>
	<g>
		<polygon fill="currentColor" stroke="#FFFFFF" stroke-linejoin="round" stroke-miterlimit="10" points="170.497,105.76 
			176.408,101.244 187.926,104.307 183.882,110.311 		"/>
		<polygon fill="currentColor" stroke="#FFFFFF" stroke-linecap="round" stroke-linejoin="round" stroke-miterlimit="10" points="
			187.926,104.307 185.71,119.439 182.808,109.326 		"/>
		<polygon fill="currentColor" stroke="#FFFFFF" stroke-linecap="round" stroke-linejoin="round" stroke-miterlimit="10" points="
			106.567,117.908 168.444,105.166 186.21,110.311 128.867,128.936 		"/>
		<polygon fill="currentColor" stroke="#FFFFFF" stroke-linecap="round" stroke-linejoin="round" stroke-miterlimit="10" points="
			129.847,127.221 106.567,117.908 106.567,218.137 125.927,227.693 		"/>
		<g>
			<path fill="#FFFFFF" d="M123.813,174.377c0,1.559-1.16,2.305-2.578,1.656l-9.731-4.443c-1.418-0.648-2.578-2.453-2.578-4.012
				v-43.221c0-1.559,1.182-2.354,2.625-1.766l9.638,3.928c1.443,0.588,2.625,2.344,2.625,3.904V174.377z"/>
		</g>
		<polygon fill="currentColor" stroke="#FFFFFF" stroke-linecap="round" stroke-linejoin="round" stroke-miterlimit="10" points="
			125.927,125.652 186.21,110.311 181.063,204.168 125.927,227.693 		"/>
		<path fill="#FFFFFF" d="M120.688,183.875"/>
		<polygon fill="currentColor" stroke="#FFFFFF" stroke-linecap="round" stroke-linejoin="round" stroke-miterlimit="10" points="
			121.394,226.713 123.017,225.703 123.017,182.818 119.493,182.818 		"/>
		<polygon fill="currentColor" stroke="#FFFFFF" stroke-linecap="round" stroke-linejoin="round" stroke-miterlimit="10" points="
			105.315,175.498 107.18,174.822 123.017,182.818 120.688,183.875 		"/>
		<polygon fill="currentColor" points="106.051,216.666 122.128,225.979 120.229,202.33 107.608,196.143 		"/>
		<polygon fill="currentColor" stroke="#FFFFFF" stroke-linecap="round" stroke-linejoin="round" stroke-miterlimit="10" points="
			105.315,175.498 121.394,183.584 121.394,226.713 117.839,224.619 117.839,204.965 107.302,199.145 107.302,218.504 
			105.315,217.4 		"/>
	</g>
	<g>
		<polygon fill="currentColor" stroke="#FFFFFF" stroke-linejoin="round" stroke-miterlimit="10" points="198.033,117.973 
			203.945,113.455 215.462,116.52 211.419,122.523 		"/>
		<polygon fill="currentColor" stroke="#FFFFFF" stroke-linejoin="round" stroke-miterlimit="10" points="215.462,116.52 
			213.247,131.652 210.344,121.537 		"/>
		<polygon fill="currentColor" stroke="#FFFFFF" stroke-linecap="round" stroke-linejoin="round" stroke-miterlimit="10" points="
			134.104,130.119 195.981,117.377 213.747,122.523 156.403,141.148 		"/>
		<polygon fill="currentColor" stroke="#FFFFFF" stroke-linecap="round" stroke-linejoin="round" stroke-miterlimit="10" points="
			157.384,139.432 134.104,130.119 134.104,230.348 153.464,239.904 		"/>
		<g>
			<path fill="#FFFFFF" d="M151.35,186.59c0,1.559-1.16,2.305-2.578,1.656l-9.731-4.445c-1.418-0.646-2.578-2.453-2.578-4.012
				V136.57c0-1.561,1.182-2.354,2.625-1.766l9.638,3.926c1.443,0.59,2.625,2.346,2.625,3.904V186.59z"/>
		</g>
		<polygon fill="currentColor" stroke="#FFFFFF" stroke-linecap="round" stroke-linejoin="round" stroke-miterlimit="10" points="
			153.464,137.863 213.747,122.523 208.601,216.379 153.464,239.904 		"/>
		<path fill="#FFFFFF" d="M148.226,196.086"/>
		<polygon fill="currentColor" stroke="#FFFFFF" stroke-linecap="round" stroke-linejoin="round" stroke-miterlimit="10" points="
			148.93,238.926 150.554,237.914 150.554,195.029 147.03,195.029 		"/>
		<polygon fill="currentColor" stroke="#FFFFFF" stroke-linecap="round" stroke-linejoin="round" stroke-miterlimit="10" points="
			132.853,187.709 134.716,187.035 150.554,195.029 148.226,196.086 		"/>
		<polygon fill="currentColor" points="133.587,228.879 149.665,238.191 147.766,214.543 135.146,208.355 		"/>
		<polygon fill="currentColor" stroke="#FFFFFF" stroke-linecap="round" stroke-linejoin="round" stroke-miterlimit="10" points="
			132.853,187.709 148.93,195.797 148.93,238.926 145.376,236.83 145.376,217.176 134.839,211.357 134.839,230.717 132.853,229.613 
					"/>
	</g>
	<g>
		<polygon fill="currentColor" stroke="#FFFFFF" stroke-linejoin="round" stroke-miterlimit="10" points="225.569,130.186 
			231.481,125.668 242.999,128.732 238.956,134.736 		"/>
		<polygon fill="currentColor" stroke="#FFFFFF" stroke-linejoin="round" stroke-miterlimit="10" points="242.999,128.732 
			240.783,143.865 237.88,133.75 		"/>
		<polygon fill="currentColor" stroke="#FFFFFF" stroke-linecap="round" stroke-linejoin="round" stroke-miterlimit="10" points="
			161.641,142.332 223.517,129.59 241.284,134.736 183.94,153.361 		"/>
		<polygon fill="currentColor" stroke="#FFFFFF" stroke-linecap="round" stroke-linejoin="round" stroke-miterlimit="10" points="
			184.921,151.645 161.641,142.332 161.641,242.561 181,252.117 		"/>
		<g>
			<path fill="#FFFFFF" d="M178.886,198.803c0,1.559-1.16,2.305-2.578,1.656l-9.73-4.445c-1.418-0.646-2.578-2.453-2.578-4.012
				v-43.219c0-1.561,1.182-2.354,2.625-1.766l9.637,3.926c1.443,0.59,2.625,2.346,2.625,3.904V198.803z"/>
		</g>
		<polygon fill="currentColor" stroke="#FFFFFF" stroke-linecap="round" stroke-linejoin="round" stroke-miterlimit="10" points="
			181,150.076 241.284,134.736 236.138,228.592 181,252.117 		"/>
		<path fill="#FFFFFF" d="M175.762,208.299"/>
		<polygon fill="currentColor" stroke="#FFFFFF" stroke-linecap="round" stroke-linejoin="round" stroke-miterlimit="10" points="
			176.466,251.139 178.09,250.127 178.09,207.242 174.567,207.242 		"/>
		<polygon fill="currentColor" stroke="#FFFFFF" stroke-linecap="round" stroke-linejoin="round" stroke-miterlimit="10" points="
			160.389,199.922 162.253,199.248 178.09,207.242 175.762,208.299 		"/>
		<polygon fill="currentColor" points="161.124,241.092 177.202,250.404 175.302,226.756 162.683,220.568 		"/>
		<polygon fill="currentColor" stroke="#FFFFFF" stroke-linecap="round" stroke-linejoin="round" stroke-miterlimit="10" points="
			160.389,199.922 176.466,208.01 176.466,251.139 172.913,249.043 172.913,229.389 162.376,223.57 162.376,242.93 160.389,241.826 
					"/>
	</g>
	<g>
		<polygon fill="currentColor" stroke="#FFFFFF" stroke-linejoin="round" stroke-miterlimit="10" points="253.106,142.396 
			259.019,137.881 270.536,140.945 266.493,146.949 		"/>
		<polygon fill="currentColor" stroke="#FFFFFF" stroke-linejoin="round" stroke-miterlimit="10" points="270.536,140.945 
			268.32,156.078 265.417,145.963 		"/>
		<polygon fill="currentColor" stroke="#FFFFFF" stroke-linecap="round" stroke-linejoin="round" stroke-miterlimit="10" points="
			189.177,154.545 251.054,141.803 268.821,146.949 211.478,165.572 		"/>
		<polygon fill="currentColor" stroke="#FFFFFF" stroke-linecap="round" stroke-linejoin="round" stroke-miterlimit="10" points="
			212.458,163.857 189.177,154.545 189.177,254.773 208.536,264.33 		"/>
		<g>
			<path fill="#FFFFFF" d="M206.423,211.016c0,1.559-1.16,2.305-2.578,1.656l-9.73-4.445c-1.418-0.646-2.578-2.453-2.578-4.012
				v-43.221c0-1.559,1.182-2.354,2.625-1.766l9.637,3.928c1.443,0.588,2.625,2.344,2.625,3.904V211.016z"/>
		</g>
		<polygon fill="currentColor" stroke="#FFFFFF" stroke-linecap="round" stroke-linejoin="round" stroke-miterlimit="10" points="
			208.536,162.289 268.821,146.949 263.675,240.805 208.536,264.33 		"/>
		<path fill="#FFFFFF" d="M203.299,220.512"/>
		<polygon fill="currentColor" stroke="#FFFFFF" stroke-linecap="round" stroke-linejoin="round" stroke-miterlimit="10" points="
			204.003,263.352 205.626,262.34 205.626,219.455 202.104,219.455 		"/>
		<polygon fill="currentColor" stroke="#FFFFFF" stroke-linecap="round" stroke-linejoin="round" stroke-miterlimit="10" points="
			187.926,212.135 189.79,211.459 205.626,219.455 203.299,220.512 		"/>
		<polygon fill="currentColor" points="188.661,253.303 204.738,262.615 202.839,238.967 190.219,232.779 		"/>
		<polygon fill="currentColor" stroke="#FFFFFF" stroke-linecap="round" stroke-linejoin="round" stroke-miterlimit="10" points="
			187.926,212.135 204.003,220.221 204.003,263.352 200.45,261.256 200.45,241.602 189.913,235.781 189.913,255.143 
			187.926,254.039 		"/>
	</g>
</g>
</svg>
